<svg width="16" height="16" viewBox="0 0 16 16" fill="none" xmlns="http://www.w3.org/2000/svg">
<path d="M8.00001 1.33301C4.32401 1.33301 1.33334 4.32367 1.33334 7.99967C1.33334 11.6757 4.32401 14.6663 8.00001 14.6663C11.676 14.6663 14.6667 11.6757 14.6667 7.99967C14.6667 4.32367 11.676 1.33301 8.00001 1.33301ZM8.00001 13.333C5.05934 13.333 2.66668 10.9403 2.66668 7.99967C2.66668 5.05901 5.05934 2.66634 8.00001 2.66634C10.9407 2.66634 13.3333 5.05901 13.3333 7.99967C13.3333 10.9403 10.9407 13.333 8.00001 13.333Z" fill="#A99985"/>
<path d="M5.33334 10.6663L9.32734 9.33301L10.6667 5.33301L6.66668 6.66634L5.33334 10.6663Z" fill="#A99985"/>
</svg>
