<svg preserveAspectRatio="none" overflow="visible" style="display: block;" width="16" height="16" viewBox="0 0 16 16" fill="none" xmlns="http://www.w3.org/2000/svg">
<g id="BiTask">
<path id="Vector" d="M3.33333 14.6667H12.6667C13.402 14.6667 14 14.0687 14 13.3333V3.33333C14 2.598 13.402 2 12.6667 2H11.3333C11.3333 1.82319 11.2631 1.65362 11.1381 1.5286C11.013 1.40357 10.8435 1.33333 10.6667 1.33333H5.33333C5.15652 1.33333 4.98695 1.40357 4.86193 1.5286C4.7369 1.65362 4.66667 1.82319 4.66667 2H3.33333C2.598 2 2 2.598 2 3.33333V13.3333C2 14.0687 2.598 14.6667 3.33333 14.6667ZM3.33333 3.33333H4.66667V4.66667H11.3333V3.33333H12.6667V13.3333H3.33333V3.33333Z" fill="#A99985"/>
<path id="Vector_2" d="M7.33333 9.05733L6.138 7.862L5.19533 8.80467L7.33333 10.9427L10.8047 7.47133L9.862 6.52867L7.33333 9.05733Z" fill="#A99985"/>
</g>
</svg>
