<svg preserveAspectRatio="none" overflow="visible" style="display: block;" width="64" height="64" viewBox="0 0 64 64" fill="none" xmlns="http://www.w3.org/2000/svg">
<g id="BiHistory">
<path id="Vector" d="M32 21.3333V34.6667H45.3333V29.3333H37.3333V21.3333H32Z" fill="#A99985"/>
<path id="Vector_2" d="M56.7787 22.6587C55.5758 19.8055 53.8296 17.2134 51.6373 15.0267C48.3188 11.7082 44.1005 9.43494 39.504 8.488C36.3136 7.83863 33.0251 7.83863 29.8347 8.488C25.2338 9.42889 21.0119 11.704 17.696 15.0293C15.509 17.2184 13.7635 19.8076 12.5547 22.656C11.3043 25.6123 10.6622 28.7902 10.6667 32L10.6693 32.0667H5.33333L13.3333 42.6667L21.3333 32.0667H16.0027L16 32C15.9923 28.281 17.1026 24.6455 19.1867 21.5653C20.531 19.5778 22.2425 17.8654 24.2293 16.52C26.2505 15.1584 28.5177 14.2037 30.904 13.7093C35.7534 12.7123 40.8003 13.6817 44.9352 16.4045C49.0701 19.1272 51.9547 23.3805 52.9547 28.2293C53.4577 30.7144 53.4577 33.275 52.9547 35.76C52.4668 38.1484 51.5116 40.4167 50.144 42.4347C49.4773 43.424 48.712 44.3547 47.8667 45.1973C46.1631 46.8988 44.1489 48.2576 41.9333 49.2C40.8049 49.677 39.6321 50.0414 38.432 50.288C35.9478 50.7907 33.3882 50.7907 30.904 50.288C28.5181 49.7988 26.2519 48.8447 24.2347 47.48C23.2425 46.8096 22.3166 46.0461 21.4693 45.2L17.6987 48.9707C19.9257 51.2007 22.5707 52.9695 25.4824 54.1757C28.394 55.3819 31.5151 56.0019 34.6667 56C37.8748 55.9987 41.0505 55.3578 44.008 54.1147C48.295 52.3009 51.9628 49.2807 54.5653 45.4213C57.2439 41.4584 58.6725 36.7833 58.6667 32C58.6734 28.7908 58.0312 25.6134 56.7787 22.6587V22.6587Z" fill="#A99985"/>
</g>
</svg>
