<svg preserveAspectRatio="none" overflow="visible" style="display: block;" width="16" height="16" viewBox="0 0 16 16" fill="none" xmlns="http://www.w3.org/2000/svg">
<g id="BiBook">
<path id="Vector" d="M4 14.6667H14V13.3333H4.008C3.7 13.3253 3.33333 13.2033 3.33333 12.6667C3.33333 12.13 3.7 12.008 4.008 12H14V2.66667C14 1.93133 13.402 1.33333 12.6667 1.33333H4C3.196 1.33333 2 1.866 2 3.33333V12.6667C2 14.134 3.196 14.6667 4 14.6667ZM3.33333 5.33333V3.33333C3.33333 2.79667 3.7 2.67467 4 2.66667H12.6667V10.6667H3.33333V5.33333Z" fill="#A99985"/>
<path id="Vector_2" d="M5.33333 4H11.3333V5.33333H5.33333V4Z" fill="#A99985"/>
</g>
</svg>
