<svg preserveAspectRatio="none" overflow="visible" style="display: block;" width="64" height="64" viewBox="0 0 64 64" fill="none" xmlns="http://www.w3.org/2000/svg">
<g id="BiMessageCheck">
<path id="Vector" d="M53.3333 5.33333H10.6667C7.72533 5.33333 5.33333 7.72533 5.33333 10.6667V42.6667C5.33333 45.608 7.72533 48 10.6667 48H18.6667V58.0453L35.4053 48H53.3333C56.2747 48 58.6667 45.608 58.6667 42.6667V10.6667C58.6667 7.72533 56.2747 5.33333 53.3333 5.33333ZM53.3333 42.6667H33.928L24 48.6213V42.6667H10.6667V10.6667H53.3333V42.6667Z" fill="#A99985"/>
<path id="Vector_2" d="M45.8853 19.2187L42.1147 15.448L29.3333 28.2293L23.2187 22.1147L19.448 25.8853L29.3333 35.7707L45.8853 19.2187Z" fill="#A99985"/>
</g>
</svg>
